<svg width="82" height="101" viewBox="0 0 82 101" fill="none" xmlns="http://www.w3.org/2000/svg">
<path d="M74.893 82.1262C71.1647 78.9614 66.0558 77.5433 59.2472 75.8905C53.6501 74.5287 51.1895 73.4676 51.1895 68.9973V66.0391C51.8939 65.532 52.5701 64.9967 53.218 64.4144C53.744 64.6304 54.3074 64.7337 54.8709 64.7431C56.0166 64.7337 57.106 64.2923 57.9418 63.5223L70.8735 51.9335C73.5218 49.6232 75.2686 46.449 75.8039 42.9743L80.9785 12.1711C81.1005 11.4386 80.6028 10.7342 79.8703 10.6122L68.0374 8.64943C67.3049 8.52734 66.6005 9.02507 66.4784 9.75759C66.4784 9.76698 66.4784 9.78574 66.4784 9.79513L64.9946 20.5763C63.5672 16.8667 61.2569 13.4577 58.0827 10.3774C58.8622 9.8233 59.8013 9.52281 60.7592 9.52281C61.5011 9.52281 62.1021 8.90297 62.0928 8.15167C62.0928 7.41915 61.4917 6.82752 60.7592 6.81813C58.2048 6.81813 56.1293 4.74268 56.1293 2.18827C56.1293 1.44637 55.5283 0.835938 54.777 0.835938C54.0257 0.835938 53.4247 1.43698 53.4247 2.18827C53.4247 3.21192 53.0866 4.20739 52.4574 5.01504C48.7384 2.08498 45.0853 1.44635 41.9955 2.05678C33.7313 -0.469452 27.8054 3.59693 25.5046 8.91235C21.2973 12.6688 18.3203 16.7259 16.5923 21.0458L15.0428 9.79513C14.9395 9.05322 14.2633 8.53673 13.5214 8.64003C13.512 8.64003 13.4932 8.64003 13.4838 8.64003L1.65092 10.6028C0.918403 10.7248 0.420676 11.4198 0.542762 12.1617L5.71731 42.9649C6.25261 46.4396 7.99939 49.6138 10.6477 51.9241L23.57 63.5129C24.4058 64.2923 25.5046 64.7243 26.6503 64.7337C27.2138 64.7337 27.7773 64.621 28.3032 64.4144C28.9512 64.9967 29.6179 65.532 30.3223 66.0391V68.9973C30.3223 73.4676 27.8712 74.5287 22.274 75.8905C15.4654 77.5433 10.3566 78.9614 6.62826 82.1262C2.60882 85.5352 0.655461 90.6441 0.298596 98.6923C0.261031 99.4342 0.843281 100.073 1.58519 100.101C1.60397 100.101 1.62275 100.101 1.64153 100.101H79.8703C80.6122 100.101 81.2226 99.5 81.2226 98.7487C81.2226 98.7299 81.2226 98.7111 81.2226 98.6923C80.8564 90.6535 78.903 85.5446 74.893 82.1262ZM30.388 56.9202L24.4246 49.3791C25.7957 48.5057 26.5189 46.9092 26.2559 45.3033L24.9787 35.189C24.9505 34.9542 24.8566 34.7288 24.7064 34.541L22.3398 31.4513C24.8942 25.948 29.8339 21.9098 35.7504 20.5105C35.8255 20.5011 35.9007 20.4824 35.9664 20.4542C37.5347 20.0973 39.1406 19.9095 40.7559 19.9189C48.8324 19.9189 55.8194 24.3233 59.1721 31.4513L56.8055 34.541C56.6646 34.7288 56.5707 34.9542 56.5331 35.189L55.2466 45.3127C54.993 46.9186 55.7161 48.5151 57.0872 49.3791L51.1144 56.9202C49.5837 58.8548 49.8936 61.1463 51.0393 62.7146C44.672 68.1615 36.821 68.1709 30.4538 62.7146C31.5995 61.1463 31.9094 58.8548 30.3786 56.9202H30.388ZM66.8071 25.9386C66.948 25.7508 67.0419 25.5348 67.0701 25.3L68.9671 11.5231L78.0954 13.0351L73.1462 42.5047C72.7142 45.3784 71.268 47.9986 69.0704 49.905L56.1387 61.4937C54.8991 62.6113 53.744 61.644 53.528 61.4374C52.9927 60.9303 52.3259 59.7658 53.2556 58.5919L59.9234 50.1679C60.8813 50.1585 61.8016 49.8393 62.5623 49.2664C63.4451 48.5715 64.0086 47.5572 64.1213 46.4396L65.2388 37.6119C65.3327 36.87 64.8068 36.1938 64.0649 36.0999C63.323 36.006 62.6468 36.5319 62.5529 37.2738L61.4354 46.1016C61.4072 46.5054 61.21 46.881 60.9001 47.1346C60.4868 47.4163 59.9891 47.5384 59.4914 47.4539H59.482C59.482 47.4539 59.482 47.4539 59.4726 47.4539C59.2942 47.4257 57.7446 47.1721 57.9324 45.6508L59.1721 35.8933L61.7735 32.4937C61.7735 32.4937 61.8016 32.4561 61.8204 32.4373L66.131 26.8026L66.7884 25.9386H66.8071ZM54.777 6.41432C55.2559 7.09049 55.8476 7.68212 56.5237 8.16107C55.8476 8.64002 55.2559 9.23165 54.777 9.90782C54.298 9.23165 53.7064 8.64002 53.0302 8.16107C53.7064 7.68212 54.298 7.09049 54.777 6.41432ZM38.1733 6.92142C40.8404 4.45153 45.2637 3.24006 50.1002 6.6209C49.6776 6.74298 49.2456 6.80873 48.8042 6.80873C48.0623 6.80873 47.4612 7.42857 47.4706 8.17987C47.4706 8.91238 48.0717 9.50401 48.8042 9.51341C51.3586 9.51341 53.4341 11.5889 53.4341 14.1433C53.4341 14.8852 54.0351 15.4956 54.7864 15.4956C55.5377 15.4956 56.1387 14.8946 56.1387 14.1433C56.1387 13.5892 56.2326 13.0445 56.4299 12.528C60.3366 16.3878 62.7595 20.8016 63.6329 25.6569L61.0127 29.0847C57.0121 21.7126 49.4428 17.2236 40.7747 17.2236C39.2251 17.2236 37.685 17.3738 36.173 17.665C33.9567 13.946 35.4687 9.44767 38.1921 6.93082L38.1733 6.92142ZM27.5237 10.7249C27.6834 10.584 27.8054 10.415 27.8806 10.2177C29.2047 6.959 32.4165 3.81293 37.5159 3.98197C37.1027 4.2731 36.7083 4.59242 36.3326 4.93989C32.9518 8.05777 31.0548 13.561 33.4496 18.3505C27.9088 20.1161 23.2789 23.9571 20.5179 29.0753L17.9822 25.7602C19.1092 20.3133 22.2364 15.3923 27.5331 10.7249H27.5237ZM25.3731 61.5031L12.4508 49.9144C10.2533 48.0174 8.80702 45.3878 8.37503 42.5141L3.42586 13.0445L12.5541 11.5325L14.4511 25.3094C14.4793 25.5442 14.5732 25.7602 14.7141 25.948L15.4184 26.8683C15.4184 26.8683 15.456 26.9153 15.4748 26.9341L19.6632 32.4092C19.6632 32.4092 19.7102 32.4749 19.7384 32.5031L22.3398 35.8933L23.57 45.6508C23.7672 47.1627 22.2177 47.4257 22.0392 47.4539C22.0392 47.4539 22.0204 47.4539 22.0111 47.4539C21.7199 47.4915 20.2643 47.5948 20.0765 46.1016L18.9683 37.2738C18.8744 36.5319 18.1982 36.006 17.4563 36.0999C16.7144 36.1938 16.1885 36.87 16.2824 37.6119L17.3906 46.4396C17.7005 48.9095 19.6351 50.121 21.5979 50.1679L28.2656 58.5919C29.1953 59.7658 28.5286 60.9303 27.9933 61.4374C27.7773 61.644 26.6222 62.6113 25.3731 61.4937V61.5031ZM3.07839 97.3964C4.08324 83.704 10.3566 81.5628 22.9126 78.5107C27.6552 77.3649 33.027 76.0595 33.027 68.9879V67.6544C37.8822 70.1336 43.6296 70.1336 48.4943 67.6544V68.9879C48.4943 76.0501 53.8754 77.3555 58.618 78.5107C71.174 81.5628 77.4474 83.704 78.4522 97.3964H3.08777H3.07839ZM67.9247 60.9678C67.9247 60.2259 67.3236 59.6155 66.5723 59.6155C65.8211 59.6155 65.22 60.2165 65.22 60.9678C65.22 63.4753 63.1821 65.5038 60.6747 65.5132C59.9328 65.5132 59.3317 66.133 59.3411 66.8843C59.3411 67.6168 59.9422 68.2085 60.6747 68.2179C63.1821 68.2179 65.2106 70.2557 65.22 72.7632C65.22 73.5051 65.8211 74.1155 66.5723 74.1155C67.3236 74.1155 67.9247 73.5145 67.9247 72.7632C67.9247 70.2557 69.9626 68.2272 72.47 68.2179C73.2119 68.2179 73.813 67.598 73.8036 66.8467C73.8036 66.1142 73.2025 65.5226 72.47 65.5132C69.9626 65.5132 67.9341 63.4753 67.9247 60.9678ZM66.5723 68.5465C66.1028 67.8985 65.5393 67.3257 64.8913 66.8655C65.5393 66.396 66.1122 65.8325 66.5723 65.1845C67.0419 65.8325 67.6054 66.4054 68.2534 66.8655C67.6054 67.3351 67.0325 67.8985 66.5723 68.5465ZM11.0891 73.3924C11.0891 74.1343 11.6901 74.7448 12.4414 74.7448C13.1927 74.7448 13.7937 74.1437 13.7937 73.3924C13.7937 70.0585 16.4984 67.3633 19.8323 67.3539C20.5742 67.3539 21.1752 66.734 21.1658 65.9827C21.1658 65.2502 20.5648 64.6586 19.8323 64.6492C16.4984 64.6492 13.8031 61.9445 13.7937 58.62C13.7937 57.8781 13.1927 57.2677 12.4414 57.2677C11.6901 57.2677 11.0891 57.8687 11.0891 58.62C11.0891 61.9445 8.38442 64.6492 5.05993 64.6492C4.31803 64.6492 3.71699 65.269 3.72638 66.0203C3.72638 66.7528 4.32742 67.3445 5.05993 67.3539C8.39381 67.3539 11.0891 70.0585 11.0891 73.3924ZM12.4414 63.2875C13.1364 64.3862 14.0661 65.3159 15.1649 66.0109C14.0661 66.7058 13.1364 67.6356 12.4414 68.7344C11.7465 67.6356 10.8167 66.7058 9.71798 66.0109C10.8167 65.3159 11.7465 64.3862 12.4414 63.2875Z" fill="white"/>
</svg>
