<svg width="91" height="91" viewBox="0 0 91 91" fill="none" xmlns="http://www.w3.org/2000/svg">
<path d="M86.3752 50.2087C81.4448 46.0766 74.2887 45.992 69.255 50.0021L50.2941 34.8541L52.3415 32.8068L59.6759 40.1413C60.2958 40.6766 61.235 40.6015 61.7609 39.9817C62.2398 39.4276 62.2398 38.6106 61.7609 38.0565L54.3606 30.6562L56.4454 28.5713L63.7799 35.9716C64.3621 36.5539 65.3013 36.5539 65.8835 35.9716C66.4658 35.3894 66.4658 34.4502 65.8835 33.868L58.549 26.5334L60.6715 24.4862L68.0717 31.8207C68.654 32.403 69.5931 32.403 70.1754 31.8207C70.7576 31.2384 70.7576 30.2993 70.1754 29.7171L62.8408 22.3168L64.9257 20.2319L72.326 27.6322C72.9082 28.2145 73.8474 28.2145 74.4296 27.6322C75.0119 27.05 75.0119 26.1109 74.4296 25.5286L67.0293 18.194L69.1142 16.1092L76.5144 23.4437C77.2469 23.81 78.1391 23.5095 78.496 22.777C78.7214 22.3168 78.6932 21.7627 78.4209 21.3307L71.0206 13.9962L73.1242 11.8925L80.4587 19.2271C81.0503 19.8281 82.0177 19.8469 82.6187 19.2552C83.2197 18.6636 83.2386 17.6963 82.6469 17.0953L75.2466 9.76075L77.3503 7.65713L84.7505 14.9917C85.3704 15.527 86.3094 15.4518 86.8354 14.832C87.3143 14.2779 87.3143 13.4609 86.8354 12.9068L75.3123 1.43075C73.575 -0.29723 70.767 -0.29723 69.0297 1.43075L42.0768 28.3835L10.7102 3.40288C8.62531 1.75942 5.6108 2.12568 3.96734 4.20114C2.59622 5.93852 2.59622 8.39902 3.96734 10.1364L28.9479 41.503L1.99521 68.4558C0.267223 70.1932 0.267223 73.0012 1.99521 74.7385L13.5181 86.2615C14.1004 86.8438 15.0396 86.8438 15.6219 86.2615C16.2041 85.6793 16.2041 84.7402 15.6219 84.1579L8.28727 76.7576L10.3721 74.6728L17.6879 82.0731C18.2701 82.6553 19.2092 82.6553 19.7915 82.0731C20.3738 81.4908 20.3738 80.5517 19.7915 79.9694L12.457 72.5692L14.5418 70.4843L21.8857 77.8282C22.421 78.448 23.3507 78.5232 23.9705 77.9879C24.5904 77.4526 24.6655 76.5229 24.1302 75.903C24.0833 75.8467 24.0269 75.7904 23.9705 75.7434L16.6361 68.3431L18.7397 66.2395L26.14 73.6397C26.7598 74.175 27.6989 74.0999 28.2248 73.4801C28.7037 72.926 28.7037 72.109 28.2248 71.5549L20.8903 64.2204L22.9939 62.1167L30.3284 69.517C31.0328 69.9396 31.9437 69.7048 32.3569 69.0099C32.6387 68.5309 32.6387 67.9299 32.3381 67.4603L25.0694 60.0601L27.173 57.9564L34.5076 65.291C35.0898 65.8638 36.0195 65.8638 36.5924 65.291C37.1653 64.7087 37.1653 63.779 36.5924 63.2061L29.2578 55.8059L31.3427 53.721L38.6772 61.0555C39.2595 61.6378 40.1986 61.6378 40.7808 61.0555C41.3631 60.4733 41.3631 59.5342 40.7808 58.9519L33.4464 51.5516L35.4279 49.711L50.5289 68.6718C45.8615 74.3629 46.6879 82.7586 52.379 87.426C58.07 92.0935 66.4659 91.267 71.1333 85.576C74.0446 82.0261 74.9273 77.2272 73.4623 72.8791C78.017 74.4098 83.0507 73.3674 86.6288 70.1556C89.3053 67.4791 90.8454 63.8729 90.9111 60.0882C90.836 56.313 89.1643 52.7443 86.3094 50.265L86.3752 50.2087ZM71.1333 3.5156C71.7061 2.93335 72.6452 2.93335 73.2275 3.5156L75.3123 5.60045L47.9181 32.9946L44.3683 30.2148L71.1333 3.5156ZM8.83192 5.69434L65.8929 51.1478L55.1588 52.4814L8.06189 5.35627C8.34363 5.40323 8.60653 5.5253 8.83192 5.69434ZM6.21185 74.7197L4.12691 72.6161C3.55405 72.0339 3.55405 71.1041 4.12691 70.5313L30.7886 43.8696L33.5684 47.3632L6.21185 74.7197ZM68.2313 84.3739C64.1837 88.4215 57.6193 88.4215 53.5717 84.3739C49.524 80.3263 49.524 73.7618 53.5717 69.7142C57.6193 65.6666 64.1837 65.6666 68.2313 69.7142C72.2789 73.7618 72.2789 80.3263 68.2313 84.3739ZM84.6847 67.9111C80.3366 71.6112 73.866 71.3201 69.8748 67.2256C65.0853 62.8399 57.8259 62.5393 52.6983 66.5306L6.31514 8.26755C6.12732 8.02338 6.00522 7.74164 5.95827 7.44112L53.5717 55.0545C53.891 55.3832 54.3512 55.5429 54.802 55.4866L69.1517 53.6928C69.4804 53.6553 69.7809 53.505 70.0063 53.2796C73.8567 49.279 80.1488 48.9127 84.4312 52.4532C88.7605 56.2003 89.2395 62.746 85.4924 67.0753C85.2388 67.3664 84.9665 67.6481 84.6847 67.9111Z" fill="white"/>
</svg>
