<svg width="96" height="96" viewBox="0 0 96 96" fill="none" xmlns="http://www.w3.org/2000/svg">
<path d="M87.2053 89.3927V56.0914L87.8627 52.8139C89.5249 44.5027 90.3701 36.0412 90.3889 27.5609L95.3287 15.2115C96.3711 12.5913 95.4414 9.59554 93.0936 8.01782L92.9809 7.9427C85.6276 3.0217 76.0298 3.0217 68.6764 7.9427L68.5638 8.01782C66.2253 9.59554 65.2956 12.5819 66.3286 15.2115L71.2684 27.5609C71.2872 36.0412 72.1418 44.4933 73.7946 52.8045L74.452 56.082V89.3833C74.452 92.905 77.307 95.7599 80.8287 95.7599C84.3504 95.7599 87.2053 92.905 87.2053 89.3833V89.3927ZM73.9355 25.6545L69.2869 14.0188C68.7985 12.798 69.2399 11.3987 70.3293 10.6661L70.442 10.591C76.7247 6.38376 84.9326 6.38376 91.2153 10.591L91.328 10.6661C92.4174 11.3987 92.8588 12.798 92.3704 14.0188L87.7218 25.6545H84.3691L85.5806 19.5972C85.7591 18.7332 85.205 17.888 84.341 17.719C83.477 17.5405 82.6318 18.0946 82.4627 18.9586C82.4627 18.9586 82.4627 18.968 82.4627 18.9774L81.1292 25.6639H80.5563L79.2228 18.9774C79.0537 18.1134 78.2179 17.5499 77.3539 17.719C76.4899 17.888 75.9264 18.7238 76.0955 19.5878C76.0955 19.5878 76.0955 19.5972 76.0955 19.6066L77.307 25.6639H73.9543L73.9355 25.6545ZM84.0123 89.3927C84.0123 91.1488 82.5848 92.5763 80.8287 92.5763C79.0725 92.5763 77.645 91.1488 77.645 89.3927V57.5283H84.0217V89.3927H84.0123ZM84.3034 54.3353H77.3539L76.9219 52.1847C75.3818 44.4933 74.5647 36.6798 74.4614 28.8475H87.1865C87.1489 32.0406 86.9893 35.2242 86.7075 38.4078H82.4252C81.5424 38.4078 80.8287 39.1215 80.8287 40.0043C80.8287 40.8871 81.5424 41.6008 82.4252 41.6008H86.3882C85.9844 45.1601 85.4304 48.6912 84.7354 52.1941L84.3034 54.3447V54.3353Z" fill="white"/>
<path d="M63.7679 48.3735L60.6406 47.3311C58.7624 46.7019 56.7338 47.7161 56.1046 49.5944C55.9826 49.9606 55.9168 50.3457 55.9168 50.7307V67.0902C55.0341 67.0902 54.3203 67.8039 54.3203 68.6867V94.1838C54.3203 95.0666 55.0341 95.7803 55.9168 95.7803H68.6607C69.5435 95.7803 70.2572 95.0666 70.2572 94.1838V68.6867C70.2572 67.8039 69.5435 67.0902 68.6607 67.0902V55.1727C68.6607 52.083 66.6885 49.3408 63.7585 48.3735H63.7679ZM59.1098 50.7307C59.1098 50.5147 59.2883 50.3363 59.5043 50.3363C59.5512 50.3363 59.5888 50.3363 59.6263 50.3551L62.7536 51.3975C64.3783 51.9422 65.4771 53.4635 65.4771 55.1821V67.0996H59.1004V50.7401L59.1098 50.7307ZM67.0736 92.5779H57.5133V76.641H67.0736V92.5779ZM67.0736 73.4574H57.5133V70.2738H67.0736V73.4574Z" fill="white"/>
<path d="M0.151599 81.4296V82.2278C0.151599 89.7032 6.21832 95.7605 13.6937 95.7699H37.5943C45.0697 95.7699 51.1271 89.7032 51.1365 82.2278V81.4296C51.1365 80.5468 50.4227 79.833 49.54 79.833H45.7929C51.0707 68.7045 46.3282 55.3971 35.1902 50.1193C24.0616 44.8414 10.7543 49.584 5.47641 60.722C2.61209 66.7699 2.61209 73.7851 5.47641 79.833H1.72932C0.846542 79.833 0.132812 80.5468 0.132812 81.4296H0.151599ZM25.6487 51.1523C36.2138 51.1523 44.7692 59.7171 44.7692 70.2728C44.7692 73.6255 43.8865 76.9218 42.2054 79.833H38.402C43.6798 72.7896 42.2524 62.8068 35.209 57.5195C28.1656 52.2417 18.1827 53.6691 12.8955 60.7126C8.65064 66.3755 8.65064 74.1701 12.8955 79.833H9.08263C3.80477 70.686 6.94144 58.9939 16.0885 53.7161C18.9904 52.0351 22.2867 51.1523 25.6487 51.1523ZM27.8838 57.7262C29.1986 57.9609 30.4758 58.4023 31.6497 59.0315L16.1448 78.7625C15.3841 77.9079 14.7361 76.9594 14.229 75.9263L27.8838 57.7168V57.7262ZM13.0457 72.198C11.9751 65.2485 16.7365 58.7498 23.6766 57.6792C23.7705 57.6604 23.8644 57.651 23.9583 57.6416L13.0363 72.198H13.0457ZM34.2605 60.8816C35.5659 62.0743 36.6083 63.5299 37.322 65.1546C37.322 65.1546 25.8741 79.7485 25.8272 79.833H19.366L34.2605 60.8816ZM20.8686 83.0167H30.4288C31.3116 83.0167 32.0254 83.7304 32.0254 84.6132C32.0254 85.496 31.3116 86.2097 30.4288 86.2097H20.8686C19.9858 86.2097 19.2721 85.496 19.2721 84.6132C19.2721 83.7304 19.9858 83.0167 20.8686 83.0167ZM29.8372 79.833L38.3363 69.0238C38.3738 69.437 38.402 69.8502 38.402 70.2728C38.402 73.9354 36.8337 77.4195 34.082 79.833H29.8466H29.8372ZM16.3608 83.0167C15.478 85.5053 16.7834 88.2382 19.2721 89.121C19.7886 89.2994 20.3239 89.3933 20.8686 89.3933H30.4288C33.0678 89.3933 35.209 87.2521 35.209 84.6132C35.209 84.0685 35.1151 83.5332 34.9366 83.0167H47.9247C47.5021 88.4072 43.0037 92.5675 37.5943 92.5769H13.6937C8.28438 92.5769 3.786 88.4072 3.36339 83.0167H16.3514H16.3608Z" fill="white"/>
<path d="M45.4733 23.7951L48.0277 25.4949C49.2579 26.312 50.2534 27.4389 50.9108 28.7631L51.3052 29.552C51.6996 30.3408 52.6576 30.6601 53.4464 30.2657C53.7563 30.1154 54.0005 29.8619 54.1601 29.552L54.5546 28.7631C55.212 27.4389 56.2074 26.312 57.4377 25.4949L59.9921 23.7951C60.7246 23.3068 60.9218 22.3207 60.4335 21.5882C60.2363 21.2971 59.9451 21.0717 59.607 20.959C57.0808 20.1044 55.0899 18.1228 54.2447 15.5966C53.9629 14.7608 53.0614 14.31 52.2255 14.5917C51.7466 14.7514 51.3804 15.127 51.2207 15.5966C50.3661 18.1228 48.3845 20.1138 45.8583 20.959C45.0225 21.2407 44.5717 22.1423 44.8535 22.9781C44.9662 23.3162 45.1821 23.6073 45.4827 23.8045L45.4733 23.7951ZM52.7327 19.5973C53.5873 20.8181 54.6673 21.8606 55.9163 22.687L55.6721 22.856C54.5358 23.6167 53.5403 24.5652 52.7327 25.664C51.925 24.5652 50.9296 23.6167 49.7932 22.856L49.5491 22.687C50.7981 21.87 51.8781 20.8181 52.7327 19.6067V19.5973Z" fill="white"/>
<path d="M42.0836 30.5195C39.5574 29.6649 37.5664 27.6834 36.7212 25.1571C36.4395 24.3213 35.5379 23.8706 34.7021 24.1523C34.2232 24.3119 33.8569 24.6876 33.6973 25.1571C32.8427 27.6834 30.8611 29.6743 28.3349 30.5195C27.499 30.8013 27.0483 31.7028 27.33 32.5386C27.4427 32.8767 27.6587 33.1678 27.9592 33.3651L30.5136 35.0649C31.7439 35.8819 32.7394 37.0088 33.3967 38.333L33.7912 39.1219C34.1856 39.9107 35.1435 40.23 35.9324 39.8356C36.2423 39.6853 36.4864 39.4318 36.6461 39.1219L37.0405 38.333C37.6979 37.0088 38.6934 35.8819 39.9236 35.0649L42.478 33.3651C43.2106 32.8767 43.4078 31.8906 42.9194 31.1581C42.7222 30.867 42.4311 30.6416 42.093 30.5289L42.0836 30.5195ZM38.1487 32.4071C37.0124 33.1678 36.0169 34.1164 35.2092 35.2151C34.4016 34.1164 33.4061 33.1678 32.2698 32.4071L32.0256 32.2381C33.2747 31.4211 34.3546 30.3693 35.2092 29.1578C36.0638 30.3786 37.1438 31.4211 38.3929 32.2475L38.1487 32.4165V32.4071Z" fill="white"/>
<path d="M46.2799 11.1551L48.8343 9.45527C49.5668 8.96693 49.764 7.98087 49.2757 7.24836C49.0784 6.95723 48.7873 6.73183 48.4586 6.61913C45.9324 5.76453 43.9414 3.783 43.0962 1.25676C42.8145 0.420944 41.9129 -0.0298406 41.0771 0.251896C40.5982 0.411546 40.2319 0.787201 40.0723 1.25676C39.2177 3.783 37.2361 5.77393 34.7099 6.61913C33.8741 6.90087 33.4233 7.80242 33.705 8.63824C33.8177 8.97632 34.0337 9.26746 34.3342 9.46467L36.8887 11.1645C38.1189 11.9815 39.1144 13.1085 39.7718 14.4326L40.1662 15.2215C40.5606 16.0103 41.5185 16.3297 42.3074 15.9352C42.6173 15.785 42.8615 15.5314 43.0211 15.2215L43.4156 14.4326C44.0729 13.1085 45.0684 11.9815 46.2986 11.1645L46.2799 11.1551ZM41.5843 11.3147C40.7766 10.216 39.7811 9.26747 38.6448 8.50678L38.4006 8.33774C39.6497 7.52071 40.7297 6.46889 41.5843 5.25743C42.4389 6.47828 43.5188 7.52069 44.7679 8.34711L44.5237 8.51615C43.3874 9.27684 42.3919 10.2254 41.5843 11.3241V11.3147Z" fill="white"/>
</svg>
