<svg width="79" height="95" viewBox="0 0 79 95" fill="none" xmlns="http://www.w3.org/2000/svg">
<path d="M77.1022 11.7052C72.0215 11.7052 67.8706 7.56375 67.8706 2.47372C67.8706 1.59094 67.1475 0.858398 66.2553 0.858398C65.3631 0.858398 64.64 1.58155 64.64 2.47372C64.64 4.521 63.9638 6.38985 62.8369 7.93001C60.7239 6.28654 58.3479 5.39437 55.9156 5.39437C48.2805 5.39437 42.026 13.715 40.9084 25.2568C38.9081 28.1305 37.7811 31.4362 37.6027 34.9015C37.5557 34.8358 37.5088 34.7607 37.4618 34.6762C36.3818 23.3316 29.9958 14.8137 22.4547 14.8137C20.3135 14.8137 18.1911 15.5087 16.2471 16.8329C15.261 15.3678 14.6975 13.6023 14.6975 11.7052C14.6975 10.8225 13.9744 10.09 13.0823 10.09C12.1901 10.09 11.467 10.8131 11.467 11.7052C11.467 16.7859 7.32553 20.9368 2.23549 20.9368C1.33394 20.9368 0.620117 21.66 0.620117 22.5521C0.620117 23.4443 1.33394 24.1674 2.23549 24.1674C4.93077 24.1674 7.36309 25.3413 9.04412 27.2007C8.23647 29.5204 7.70111 32.0372 7.44755 34.6856C5.26878 37.8034 4.10433 41.4284 4.10433 45.2319V92.8265C4.10433 93.7093 4.82743 94.4418 5.71959 94.4418C6.61176 94.4418 7.33486 93.7187 7.33486 92.8265V45.2319C7.33486 44.3115 7.42879 43.41 7.58844 42.5084C8.81868 50.707 13.796 54.8485 22.4453 54.8485C31.0946 54.8485 36.0814 50.7069 37.3022 42.5272C37.4619 43.41 37.5558 44.3209 37.5558 45.2413V92.8359C37.5558 93.7187 38.2789 94.4512 39.1711 94.4512C40.0632 94.4512 40.7863 93.7281 40.7863 92.8359V35.8219C40.7863 34.9016 40.8803 34 41.0399 33.1078C42.2702 41.2876 47.2475 45.4291 55.8968 45.4291C64.5461 45.4291 69.5329 41.2876 70.7537 33.1078C70.9134 33.9906 71.0073 34.9016 71.0073 35.8219V92.8359C71.0073 93.7187 71.7304 94.4512 72.6226 94.4512C73.5147 94.4512 74.2378 93.7281 74.2378 92.8359V35.8219C74.2378 32.0185 73.0734 28.384 70.8946 25.2755C70.688 23.031 70.2466 20.8523 69.6174 18.758C71.2984 16.4478 74.0031 14.9546 77.074 14.9546C77.9568 14.9546 78.6892 14.2315 78.6892 13.3394C78.6892 12.4472 77.9661 11.724 77.074 11.724L77.1022 11.7052ZM22.4641 51.6179C16.8951 51.6179 10.5091 50.0871 10.5091 38.1603C10.5091 37.2775 10.5561 36.3666 10.6406 35.3899C10.7533 33.9906 10.9505 32.6289 11.2416 31.3235C11.3825 31.9809 11.4858 32.6758 11.4858 33.3896C11.4858 34.2723 12.1995 35.0048 13.1011 35.0048C14.0026 35.0048 14.7163 34.2817 14.7163 33.3896C14.7163 28.2901 18.8485 24.158 23.948 24.158C24.8307 24.158 25.5632 23.4349 25.5632 22.5427C25.5632 21.6506 24.8401 20.9274 23.948 20.9274C21.9476 20.9274 20.0881 20.2794 18.5761 19.1807C19.8345 18.4388 21.1399 18.035 22.4829 18.035C28.4181 18.035 33.4987 25.4916 34.3064 35.3805C34.4003 36.3666 34.4379 37.2869 34.4379 38.1509C34.4379 50.0684 28.0519 51.6085 22.4829 51.6085L22.4641 51.6179ZM55.925 42.1985C50.356 42.1985 43.97 40.6678 43.97 28.7597C43.97 27.8863 44.0169 26.9566 44.1015 25.9705C44.9279 16.0815 50.0085 8.62495 55.925 8.62495C57.4933 8.62495 59.0428 9.16023 60.4891 10.1933C59.0334 11.1418 57.2961 11.7052 55.4272 11.7052C54.5444 11.7052 53.8119 12.4284 53.8119 13.3206C53.8119 14.2127 54.535 14.9358 55.4272 14.9358C60.5078 14.9358 64.6588 19.0774 64.6588 24.1674C64.6588 25.0502 65.3819 25.7827 66.2741 25.7827C66.8751 25.7827 67.3728 25.4446 67.6452 24.9563C67.6921 25.2944 67.7391 25.6324 67.7579 25.9705C67.8424 26.9378 67.8894 27.8769 67.8894 28.7597C67.8894 40.6678 61.5033 42.1985 55.9344 42.1985H55.925Z" fill="white"/>
</svg>
