<svg width="99" height="99" viewBox="0 0 99 99" fill="none" xmlns="http://www.w3.org/2000/svg">
<g clip-path="url(#clip0_9886_12331)">
<path fill-rule="evenodd" clip-rule="evenodd" d="M88.53 88.9198H12.18C11.41 88.9198 10.83 88.3398 10.83 87.5698V30.1498C10.83 29.3798 11.41 28.7998 12.18 28.7998C12.95 28.7998 13.53 29.3798 13.53 30.1498V86.1998H87.18V30.1498C87.18 29.3798 87.76 28.7998 88.53 28.7998C89.2999 28.7998 89.88 29.3798 89.88 30.1498V87.5598C89.88 88.3298 89.2999 88.9098 88.53 88.9098" fill="white"/>
<path fill-rule="evenodd" clip-rule="evenodd" d="M97.61 98.5797H3.08999C2.31999 98.5797 1.73999 97.9997 1.73999 97.2297V87.5697C1.73999 86.7997 2.31999 86.2197 3.08999 86.2197H12.18C12.95 86.2197 13.53 86.7997 13.53 87.5697C13.53 88.3397 12.95 88.9197 12.18 88.9197H4.44999V95.8797H96.27V88.9197H88.54C87.77 88.9197 87.19 88.3397 87.19 87.5697C87.19 86.7997 87.77 86.2197 88.54 86.2197H97.63C98.4 86.2197 98.98 86.7997 98.98 87.5697V97.2297C98.98 97.9997 98.4 98.5797 97.63 98.5797" fill="white"/>
<path fill-rule="evenodd" clip-rule="evenodd" d="M86.98 30.3497H57.41C56.64 30.3497 56.06 29.7697 56.06 28.9997C56.06 28.2297 56.64 27.6497 57.41 27.6497H86.98C89.69 27.6497 92.2 25.3297 92.2 22.6197V18.1697L63.01 18.3597C62.24 18.3597 61.66 17.7797 61.66 17.0097C61.66 16.2397 62.24 15.6597 63.01 15.6597L93.55 15.4697C93.94 15.4697 94.32 15.6597 94.52 15.8597C94.71 16.0497 94.91 16.4397 94.91 16.8297V22.6297C94.91 26.8797 91.24 30.3597 86.98 30.3597M37.5 30.3497H10.63C7.73 30.3497 5.22 29.5797 3.29 28.0297C1.16 26.4797 0 23.9697 0 21.2597V17.3897C0 16.6197 0.58 16.0397 1.35 16.0397L31.89 15.8497C32.66 15.8497 33.24 16.4297 33.24 17.1997C33.24 17.9697 32.66 18.5497 31.89 18.5497L2.7 18.7397V21.2497C2.7 25.8897 6.95 27.6297 10.63 27.6297H37.5C38.27 27.6297 38.85 28.2097 38.85 28.9797C38.85 29.7497 38.27 30.3297 37.5 30.3297" fill="white"/>
<path fill-rule="evenodd" clip-rule="evenodd" d="M86.98 41.5604H12.18C11.41 41.5604 10.83 40.9804 10.83 40.2104C10.83 39.4404 11.41 38.8604 12.18 38.8604H86.99C87.7599 38.8604 88.34 39.4404 88.34 40.2104C88.34 40.9804 87.7599 41.5604 86.99 41.5604" fill="white"/>
<path fill-rule="evenodd" clip-rule="evenodd" d="M52.19 27.8302C49.68 27.8302 47.74 26.0902 47.74 23.5802C47.74 22.4202 48.32 21.4502 48.9 20.8702L47.55 18.1602L46 20.8702C46.58 21.6402 46.97 22.6102 46.97 23.5802C46.97 25.9002 45.04 27.8302 42.72 27.8302C40.4 27.8302 38.47 25.9002 38.47 23.5802C38.47 21.2602 40.4 19.3302 42.72 19.3302C43.11 19.3302 43.3 19.3302 43.69 19.5202L45.82 15.4602L41.57 7.92021C41.18 7.34021 41.38 6.57021 42.15 6.18021C42.73 5.79021 43.5 5.99021 43.89 6.57021L47.56 12.7602L51.04 6.57021C51.43 5.99021 52.2 5.80021 52.97 6.18021C53.55 6.57021 53.74 7.34021 53.36 7.92021L49.11 15.4602L51.24 19.3302H52.21C54.53 19.3302 56.46 21.2602 56.46 23.5802C56.46 25.9002 54.53 27.8302 52.21 27.8302M51.42 22.2302C50.84 22.6202 50.45 23.2002 50.45 23.5802C50.45 24.7402 51.42 25.1302 52.19 25.1302C52.96 25.1302 53.74 24.5502 53.74 23.5802C53.74 22.8102 52.97 22.0302 52.19 22.0302C51.8 22.0302 51.61 22.2202 51.42 22.2202M42.72 22.0402C41.95 22.0402 41.17 22.8102 41.17 23.5902C41.17 24.5602 41.94 25.1402 42.72 25.1402C43.5 25.1402 44.27 24.5602 44.27 23.5902C44.27 23.2002 44.08 22.6202 43.69 22.2402H43.5C43.11 22.0502 42.92 22.0502 42.73 22.0502" fill="white"/>
<path fill-rule="evenodd" clip-rule="evenodd" d="M47.36 34.02C42.91 34.02 38.66 32.28 35.57 28.99C32.28 25.7 30.54 21.45 30.54 17.01C30.54 7.73 38.08 0 47.36 0C52 0 56.25 1.74 59.34 5.03C62.63 8.12 64.37 12.38 64.37 17.01C64.37 26.29 56.83 34.02 47.36 34.02ZM47.36 2.71C39.63 2.71 33.25 9.09 33.25 17.01C33.25 24.93 39.63 31.31 47.36 31.31C55.09 31.31 61.66 24.93 61.66 17.01C61.66 9.09 55.28 2.71 47.36 2.71Z" fill="white"/>
<path fill-rule="evenodd" clip-rule="evenodd" d="M62.43 88.9203H38.08C37.31 88.9203 36.73 88.3403 36.73 87.5703V54.1303C36.73 53.3603 37.31 52.7803 38.08 52.7803H62.43C63.2 52.7803 63.78 53.3603 63.78 54.1303V87.5703C63.78 88.3403 63.2 88.9203 62.43 88.9203ZM39.43 86.2103H61.08V55.4803H39.43V86.2103Z" fill="white"/>
<path fill-rule="evenodd" clip-rule="evenodd" d="M32.09 71.7099H18.37C17.6 71.7099 17.02 71.1299 17.02 70.3599V49.4799C17.02 48.7099 17.6 48.1299 18.37 48.1299H32.09C32.86 48.1299 33.44 48.7099 33.44 49.4799V70.3599C33.44 71.1299 32.86 71.7099 32.09 71.7099ZM19.72 69.0099H30.74V50.8399H19.72V69.0099Z" fill="white"/>
<path fill-rule="evenodd" clip-rule="evenodd" d="M82.34 71.7099H68.62C67.85 71.7099 67.27 71.1299 67.27 70.3599V49.4799C67.27 48.7099 67.85 48.1299 68.62 48.1299H82.34C83.11 48.1299 83.69 48.7099 83.69 49.4799V70.3599C83.69 71.1299 83.11 71.7099 82.34 71.7099ZM69.97 69.0099H80.99V50.8399H69.97V69.0099Z" fill="white"/>
<path fill-rule="evenodd" clip-rule="evenodd" d="M65.33 93.7497H35.37C34.6 93.7497 34.02 93.1697 34.02 92.3997V87.5697C34.02 86.7997 34.6 86.2197 35.37 86.2197C36.14 86.2197 36.72 86.7997 36.72 87.5697V91.0497H63.98V87.5697C63.98 86.7997 64.56 86.2197 65.33 86.2197C66.1 86.2197 66.68 86.7997 66.68 87.5697V92.3997C66.68 93.1697 66.1 93.7497 65.33 93.7497Z" fill="white"/>
<path fill-rule="evenodd" clip-rule="evenodd" d="M57.4101 75.1904C56.6401 75.1904 56.0601 74.6104 56.0601 73.8404V68.0404C56.0601 67.2704 56.6401 66.6904 57.4101 66.6904C58.1801 66.6904 58.7601 67.2704 58.7601 68.0404V73.8404C58.7601 74.6104 58.1801 75.1904 57.4101 75.1904Z" fill="white"/>
</g>
<defs>
<clipPath id="clip0_9886_12331">
<rect width="98.97" height="98.58" fill="white"/>
</clipPath>
</defs>
</svg>
