<svg width="101" height="91" viewBox="0 0 101 91" fill="none" xmlns="http://www.w3.org/2000/svg">
<g clip-path="url(#clip0_9884_12174)">
<path d="M50.3998 74.9129C49.8821 74.9129 49.4062 74.6654 49.0638 74.2472C49.0304 74.2131 45.8074 70.185 39.6702 67.2065C31.4456 63.2125 22.1522 62.8626 12.0071 66.1227C11.4894 66.3019 10.9133 66.191 10.4624 65.8752C10.0199 65.5594 9.77771 65.0388 9.77771 64.4756V13.6289C9.77771 12.8608 10.262 12.1952 10.9801 11.9477C22.3944 8.30359 32.7816 10.5481 39.5032 13.0657C46.7342 15.7966 51.2933 19.3724 51.4686 19.509C51.8777 19.8247 52.1199 20.3539 52.1199 20.8744V73.1207C52.1199 73.8547 51.6773 74.5203 50.9843 74.7678C50.7756 74.8702 50.5752 74.9044 50.3998 74.9044V74.9129ZM25.058 60.4474C31.9466 60.4474 37.3991 62.2311 41.2734 64.1257C44.4631 65.7045 46.9263 67.4881 48.6463 68.9987V21.8303C45.3899 19.5175 30.477 10.0531 13.126 14.9602V62.1628C17.518 60.9339 21.4926 60.4474 25.058 60.4474Z" fill="white"/>
<path d="M50.3915 74.9135C50.1827 74.9135 50.0157 74.8794 49.8404 74.8111C49.1557 74.5636 48.7131 73.8979 48.7131 73.164V20.9177C48.7131 20.3971 48.9553 19.868 49.3644 19.5523C49.5732 19.4157 54.0988 15.8399 61.3298 13.1089C68.0514 10.5828 78.4387 8.34687 89.8529 11.991C90.571 12.2385 91.0553 12.9041 91.0553 13.6722V64.5103C91.0553 65.0736 90.7798 65.5942 90.3706 65.9099C89.9281 66.2257 89.377 66.3281 88.8259 66.1574C64.5528 58.306 51.8694 74.1113 51.7274 74.2905C51.3851 74.7087 50.9091 74.922 50.3915 74.922M52.1115 21.8309V69.0335C53.8233 67.5229 56.2948 65.7393 59.4845 64.1604C65.3795 61.2503 74.915 58.6559 87.5985 62.1634V14.9267C70.2474 10.0196 55.368 19.5181 52.1199 21.8309H52.1115Z" fill="white"/>
<path d="M50.3996 91.0002C49.8819 91.0002 49.3726 90.7527 49.0637 90.3345C48.237 89.2507 47.4187 88.201 46.6672 87.1427C43.1686 82.4489 40.1543 78.3867 34.9106 75.9971C29.1158 73.4027 22.4276 73.3003 14.9878 75.6813L2.23759 79.8204C1.7199 79.9911 1.14376 79.8887 0.692868 79.5729C0.250325 79.2571 0.00817871 78.728 0.00817871 78.1733V6.2728C0.00817871 5.50472 0.492471 4.83905 1.21056 4.59156L8.0992 2.38121C19.2045 -1.19462 31.2784 -0.73377 42.9683 3.6784C45.5066 4.6257 48.0784 5.81195 50.5082 7.07501C52.9046 5.77781 55.5097 4.6257 58.0481 3.6784C69.7379 -0.73377 81.7701 -1.16048 92.9172 2.38121L99.8058 4.59156C100.524 4.83905 101.008 5.50472 101.008 6.2728V70.5011C101.008 71.4825 100.257 72.2506 99.2965 72.2506C98.3362 72.2506 97.5847 71.4825 97.5847 70.5011V7.56999L91.8901 5.75221C81.5029 2.42388 70.2222 2.84205 59.2505 6.98113C56.5785 7.9967 53.8314 9.25976 51.3348 10.6252C50.8171 10.9069 50.2076 10.9069 49.6899 10.6252C47.1849 9.25976 44.4462 7.9967 41.7742 6.98113C30.8025 2.84205 19.5218 2.42388 9.13458 5.75221L3.43997 7.56999V75.7923L13.9608 72.3957C22.2272 69.733 29.7671 69.8695 36.3134 72.8138C42.3838 75.5448 45.8072 80.1703 49.4394 85.0433C49.7817 85.4956 50.1241 85.9565 50.4664 86.4088L51.4935 85.0433C55.1257 80.1703 58.5574 75.5448 64.6195 72.8138C71.1657 69.8354 78.714 69.6989 86.9721 72.3957L88.9593 73.0272C89.8528 73.3088 90.3621 74.2902 90.0949 75.2375C89.8194 76.1507 88.8591 76.6713 87.9323 76.3982L85.945 75.7667C78.5053 73.3515 71.7836 73.4539 66.0222 76.0824C60.7785 78.4635 57.7642 82.5343 54.2656 87.2281C53.4724 88.2778 52.6875 89.3616 51.8609 90.4198C51.3849 90.7698 50.9006 91.0172 50.3913 91.0172L50.3996 91.0002Z" fill="white"/>
<path d="M43.7116 30.2028C43.4026 30.2028 43.0603 30.1004 42.7847 29.9212C27.4627 19.7911 19.3717 24.8775 19.0627 25.125C18.2779 25.6456 17.2091 25.4407 16.6997 24.63C16.182 23.8192 16.3908 22.7354 17.1757 22.1807C17.5848 21.8991 27.2874 15.4557 44.6718 26.9428C45.4567 27.4719 45.6988 28.5557 45.1895 29.3579C44.8471 29.9212 44.296 30.1943 43.7116 30.1943" fill="white"/>
<path d="M43.7116 39.9824C43.4026 39.9824 43.0603 39.88 42.7847 39.7008C27.2874 29.4683 19.1296 34.8278 19.0628 34.9046C18.2779 35.4252 17.2091 35.2204 16.6997 34.4523C16.1821 33.6501 16.3908 32.5577 17.1423 32.0371C17.5514 31.7555 27.254 25.3122 44.6384 36.7992C45.4233 37.3283 45.6654 38.4122 45.1561 39.2144C44.8472 39.7094 44.2961 39.9824 43.7199 39.9824" fill="white"/>
<path d="M43.7116 49.7539C43.4026 49.7539 43.0603 49.6515 42.7847 49.4723C27.2874 39.2398 19.1296 44.5993 19.0628 44.6761C18.2779 45.1967 17.2091 44.9919 16.6997 44.2238C16.1821 43.4216 16.3908 42.3292 17.1423 41.8086C17.5514 41.527 27.254 35.0837 44.6384 46.5707C45.4233 47.0998 45.6654 48.1836 45.1561 48.9859C44.8472 49.4808 44.2961 49.7539 43.7199 49.7539H43.7116Z" fill="white"/>
<path d="M43.7116 59.5342C43.4026 59.5342 43.0603 59.4318 42.7847 59.2526C27.2874 49.0201 19.1296 54.3796 19.0628 54.4564C18.2779 54.977 17.2091 54.7721 16.6997 54.0041C16.1821 53.2018 16.3908 52.1095 17.1423 51.5889C17.5514 51.3073 27.254 44.8639 44.6384 56.351C45.4233 56.8801 45.6654 57.9639 45.1561 58.7661C44.8472 59.2611 44.2961 59.5342 43.7199 59.5342H43.7116Z" fill="white"/>
<path d="M57.0463 30.2026C56.4952 30.2026 55.9525 29.921 55.6101 29.4004C55.0924 28.5896 55.3346 27.5058 56.1278 26.9852C73.5122 15.4897 83.2482 21.9415 83.6239 22.2231C84.4088 22.7523 84.6176 23.8702 84.0665 24.6383C83.5488 25.4405 82.4884 25.6539 81.7035 25.1333C81.3277 24.8858 73.2701 19.8421 57.9815 29.9295C57.7059 30.1429 57.3636 30.2111 57.0547 30.2111L57.0463 30.2026Z" fill="white"/>
<path d="M57.0463 39.9829C56.4952 39.9829 55.9525 39.7012 55.6101 39.1807C55.0924 38.3699 55.3346 37.2861 56.1278 36.7655C73.5122 25.2699 83.2482 31.7218 83.6239 32.0034C84.4088 32.5325 84.6176 33.6505 84.0665 34.4186C83.5488 35.2208 82.4884 35.4342 81.7035 34.9136C81.3277 34.6661 73.2701 29.6224 57.9815 39.7098C57.7059 39.9231 57.3636 39.9914 57.0547 39.9914L57.0463 39.9829Z" fill="white"/>
<path d="M57.0463 49.7544C56.4952 49.7544 55.9525 49.4727 55.6101 48.9521C55.0924 48.1414 55.3346 47.0576 56.1278 46.537C73.5122 35.0414 83.2482 41.4933 83.6239 41.7749C84.4088 42.304 84.6176 43.422 84.0665 44.1901C83.5488 44.9923 82.4884 45.2056 81.7035 44.6851C81.3277 44.4376 73.2701 39.3939 57.9815 49.4813C57.7059 49.6946 57.3636 49.7629 57.0547 49.7629L57.0463 49.7544Z" fill="white"/>
<path d="M57.0463 59.5346C56.4952 59.5346 55.9525 59.253 55.6101 58.7324C55.0924 57.9217 55.3346 56.8378 56.1278 56.3172C73.5122 44.8217 83.2482 51.2735 83.6239 51.5552C84.4088 52.0843 84.6176 53.2023 84.0665 53.9703C83.5488 54.7726 82.4884 54.9859 81.7035 54.4653C81.3277 54.2178 73.2701 49.1741 57.9815 59.2615C57.7059 59.4749 57.3636 59.5432 57.0547 59.5432L57.0463 59.5346Z" fill="white"/>
</g>
<defs>
<clipPath id="clip0_9884_12174">
<rect width="101" height="91" fill="white"/>
</clipPath>
</defs>
</svg>
