<svg width="92" height="100" viewBox="0 0 92 100" fill="none" xmlns="http://www.w3.org/2000/svg">
<path d="M36.4181 60.3932C33.7604 60.3932 31.3093 59.1724 29.7128 57.0499C29.1493 56.2986 29.2808 55.2187 30.0414 54.6458C30.8021 54.0729 31.8728 54.2138 32.4456 54.9745C33.4036 56.2423 34.8498 56.9654 36.4275 56.9654C38.0052 56.9654 39.4421 56.2423 40.4094 54.9745C40.9729 54.2232 42.0528 54.0635 42.8135 54.6458C43.5648 55.2093 43.7244 56.2893 43.1422 57.0499C41.5269 59.1724 39.0758 60.3932 36.4369 60.3932H36.4181ZM60.9667 54.9745C60.0088 56.2423 58.5625 56.9654 56.9848 56.9654C55.4071 56.9654 53.9703 56.2423 53.003 54.9745C52.4395 54.2232 51.3595 54.0635 50.5988 54.6458C49.8475 55.2093 49.6879 56.2893 50.2701 57.0499C51.8854 59.1724 54.3366 60.3932 56.9755 60.3932C59.6144 60.3932 62.0843 59.1724 63.6808 57.0499C64.2442 56.2986 64.1128 55.2187 63.3521 54.6458C62.5914 54.0729 61.5208 54.2138 60.9479 54.9745H60.9667ZM50.5049 72.6863C49.6503 73.4752 48.2228 73.9353 46.7202 73.9353C45.2176 73.9353 43.7902 73.4752 42.9356 72.6863C42.2313 72.0477 41.1513 72.104 40.5221 72.8084C39.8929 73.5127 39.9398 74.5927 40.6442 75.2219C42.1374 76.5743 44.3631 77.3443 46.7296 77.3443C49.0962 77.3443 51.3219 76.5743 52.8151 75.2219C53.5195 74.5833 53.5664 73.5033 52.9372 72.8084C52.308 72.1134 51.2187 72.0571 50.5237 72.6863H50.5049ZM91.4318 85.7776C91.4318 86.482 90.9904 87.1112 90.3143 87.3554C84.8955 89.3745 82.482 95.2252 82.4444 95.2721C82.1909 95.9201 81.5523 96.3334 80.8479 96.3334C80.1436 96.3334 79.5238 95.9014 79.2514 95.2721C76.8848 89.3932 71.4473 87.3835 71.4004 87.3648C70.7524 87.1206 70.2828 86.5101 70.2734 85.8246C70.2358 85.1202 70.6491 84.4723 71.2877 84.1999C77.4765 81.4577 79.1575 76.5555 79.2233 76.3489C79.4486 75.6445 80.0966 75.1843 80.8385 75.1656C81.5241 75.0998 82.2284 75.607 82.4632 76.2925C84.379 81.6925 90.2767 84.1248 90.333 84.1436C90.981 84.3971 91.413 85.0545 91.413 85.7588L91.4318 85.7776ZM86.0788 85.7119C84.4354 84.6131 82.3881 82.9509 80.8479 80.6219C79.7867 82.1996 78.1245 84.1154 75.617 85.7495C77.2605 86.8295 79.289 88.5293 80.8949 91.0086C81.9936 89.3463 83.6935 87.2896 86.0694 85.7119H86.0788ZM62.8168 86.8295V97.7984C62.8168 98.7375 62.0467 99.517 61.0982 99.517C60.1497 99.517 59.3796 98.7469 59.3796 97.7984V88.811C55.5011 90.7174 51.1811 91.7974 46.6921 91.7974H46.1568C41.5645 91.7129 37.16 90.4639 33.2345 88.3039V97.7984C33.2345 98.7375 32.4644 99.517 31.5159 99.517C30.5674 99.517 29.7973 98.7469 29.7973 97.7984V86.0875C25.7685 83.0542 22.4721 78.9596 20.3685 74.1232C17.044 77.4007 15.5133 81.1196 15.5039 81.1666C15.2503 81.8146 14.6117 82.2465 13.9074 82.2465C13.203 82.2465 12.5738 81.8146 12.3109 81.1666C9.03336 73.0244 1.40765 70.1788 1.34191 70.1601C0.693918 69.9159 0.224403 69.3055 0.215012 68.6011C0.20562 67.8968 0.590619 67.2676 1.22922 66.9764C6.04691 64.8352 8.89249 61.7643 10.489 59.3977C9.44657 55.9887 9.0521 53.3967 9.03331 53.2747C5.89665 36.6616 16.8656 24.8475 17.3352 24.3497C19.1195 22.1522 21.1761 20.3021 23.3549 18.7244C25.2613 8.02783 34.6714 0.0546875 45.5933 0.0546875H47.8191C58.7786 0.0546875 68.2073 8.06537 70.0762 18.7901C72.2737 20.3866 74.3586 22.2179 76.1617 24.4343C76.5374 24.8287 87.5157 36.6428 84.3696 53.3216C84.2851 53.8569 82.0688 68.1128 73.8984 74.2546C73.6542 74.4424 73.3819 74.527 73.0908 74.5645C70.8651 79.6076 67.2588 83.8243 62.8074 86.8013L62.8262 86.8201L62.8168 86.8295ZM59.2199 16.8274C59.5768 17.5975 59.8398 18.3488 59.9713 18.9874C61.1358 26.8948 56.7689 30.5761 54.8437 31.797C54.2426 32.1726 53.5571 32.445 52.8339 32.6703C73.2504 40.4838 73.4383 53.7912 73.3913 55.3877L74.3304 69.1364C79.4017 63.0134 80.9794 52.899 80.9794 52.7769C83.8062 37.7886 73.673 26.8384 73.5697 26.7351C69.5879 21.8705 64.1785 18.7995 59.1824 16.8462L59.2012 16.8274H59.2199ZM27.6186 16.0573C36.9065 10.9955 46.7015 10.1408 47.2837 10.1127C50.3547 9.90606 52.7682 10.6104 54.637 11.728C57.9803 12.6201 61.9434 14.0288 65.8126 16.1324C63.0891 8.72277 55.9518 3.52942 47.8097 3.52942H45.5839C37.4699 3.52942 30.3608 8.70399 27.6186 16.0761V16.0573ZM12.4142 52.7112C12.4142 52.7112 12.5644 53.7067 12.9119 55.1435C13.1842 54.9369 13.5317 54.8148 13.8886 54.8148C14.6117 54.796 15.2785 55.2562 15.5321 55.9418C16.443 58.4774 17.9456 60.5153 19.5609 62.1494L20.021 55.3595C19.9553 53.5094 20.1713 36.1075 51.3595 29.5055C51.9793 29.3646 52.524 29.158 53.003 28.8575C55.0784 27.5521 57.3793 24.8757 56.5904 19.579C56.5528 19.4382 54.9752 12.9958 47.5185 13.4935C47.3683 13.4935 29.262 15.1088 19.899 26.613C19.7111 26.8196 9.59681 37.7698 12.4048 52.6924V52.7112H12.4142ZM22.0683 68.4697C19.5984 66.9577 16.2176 64.3563 13.8886 60.459C12.4518 62.8068 9.89731 65.9622 5.69005 68.4978C8.12237 69.9722 11.4845 72.5642 13.9544 76.7433C15.4757 74.2546 18.1052 70.8269 22.0683 68.4415V68.4603V68.4697ZM70.9966 70.4888L69.9635 55.5004V55.2562C70.001 54.6927 70.4237 41.0473 46.7015 34.2011C23.0075 41.0285 23.4582 54.6552 23.4676 55.275V55.5004L22.8197 64.8446C24.8388 66.2345 26.4728 66.9013 26.5104 66.9201C27.1584 67.1736 27.5904 67.831 27.5904 68.5354C27.5904 69.2397 27.149 69.8689 26.4728 70.1319C25.2519 70.5921 24.1626 71.1931 23.1671 71.8599C27.0081 81.5985 36.1082 88.2006 46.2413 88.3884H46.7015C57.7925 88.3884 67.6908 81.1008 70.9966 70.5075V70.4888Z" fill="white"/>
</svg>
